<svg xmlns="http://www.w3.org/2000/svg" width="24.163" height="24.161" viewBox="0 0 24.163 24.161">
  <path id="Path_3" data-name="Path 3" d="M12.057,2.143a36.968,36.968,0,0,1,4.823.134,6.213,6.213,0,0,1,2.277.4,4.7,4.7,0,0,1,2.277,2.277,6.213,6.213,0,0,1,.4,2.277c0,1.206.134,1.608.134,4.823a36.969,36.969,0,0,1-.134,4.823,6.214,6.214,0,0,1-.4,2.277,4.7,4.7,0,0,1-2.277,2.277,6.213,6.213,0,0,1-2.277.4c-1.206,0-1.608.134-4.823.134a36.969,36.969,0,0,1-4.823-.134,6.213,6.213,0,0,1-2.277-.4A4.7,4.7,0,0,1,2.68,19.154a6.213,6.213,0,0,1-.4-2.277c0-1.206-.134-1.608-.134-4.823A36.968,36.968,0,0,1,2.28,7.231a6.213,6.213,0,0,1,.4-2.277,4.811,4.811,0,0,1,.938-1.34,2.265,2.265,0,0,1,1.34-.938,6.213,6.213,0,0,1,2.277-.4,36.969,36.969,0,0,1,4.823-.134m0-2.143A39.583,39.583,0,0,0,7.1.134,8.27,8.27,0,0,0,4.153.67,5.244,5.244,0,0,0,2.01,2.01,5.244,5.244,0,0,0,.67,4.153,6.1,6.1,0,0,0,.134,7.1,39.58,39.58,0,0,0,0,12.057a39.583,39.583,0,0,0,.134,4.957A8.27,8.27,0,0,0,.67,19.961,5.244,5.244,0,0,0,2.009,22.1a5.244,5.244,0,0,0,2.143,1.34,8.27,8.27,0,0,0,2.947.536,39.581,39.581,0,0,0,4.957.134,39.583,39.583,0,0,0,4.957-.134,8.27,8.27,0,0,0,2.947-.536,5.62,5.62,0,0,0,3.483-3.483,8.27,8.27,0,0,0,.536-2.947c0-1.34.134-1.742.134-4.957A39.583,39.583,0,0,0,23.979,7.1a8.27,8.27,0,0,0-.536-2.947A5.244,5.244,0,0,0,22.1,2.009,5.244,5.244,0,0,0,19.961.67,8.27,8.27,0,0,0,17.013.134,39.58,39.58,0,0,0,12.057,0m0,5.894a6.063,6.063,0,0,0-6.162,6.162,6.162,6.162,0,1,0,6.162-6.162m0,10.181a3.947,3.947,0,0,1-4.019-4.019,3.947,3.947,0,0,1,4.019-4.019,3.947,3.947,0,0,1,4.019,4.019,3.947,3.947,0,0,1-4.019,4.019m6.43-11.923a1.474,1.474,0,1,0,1.474,1.474,1.474,1.474,0,0,0-1.474-1.474" transform="translate(0.025 0.026)" fill="#1b1d21" fill-rule="evenodd"/>
</svg>
