<svg xmlns="http://www.w3.org/2000/svg" width="24.111" height="19.56" viewBox="0 0 24.111 19.56">
  <path id="Path_2" data-name="Path 2" d="M45.636,21.559A13.941,13.941,0,0,0,59.7,7.493v-.67a10.889,10.889,0,0,0,2.411-2.545,11.121,11.121,0,0,1-2.813.8A5.212,5.212,0,0,0,61.444,2.4a12.287,12.287,0,0,1-3.081,1.206A4.784,4.784,0,0,0,54.745,2a5.033,5.033,0,0,0-4.957,4.957,2.612,2.612,0,0,0,.134,1.072A13.85,13.85,0,0,1,39.742,2.8a5.13,5.13,0,0,0-.67,2.545A5.323,5.323,0,0,0,41.215,9.5a4.516,4.516,0,0,1-2.277-.67h0a4.9,4.9,0,0,0,4.019,4.823,4.13,4.13,0,0,1-1.34.134,2.28,2.28,0,0,1-.938-.134,5.075,5.075,0,0,0,4.689,3.483,10.114,10.114,0,0,1-6.162,2.143A3.709,3.709,0,0,1,38,19.147a12.645,12.645,0,0,0,7.636,2.411" transform="translate(-38 -2)" fill="#1b1d21" fill-rule="evenodd"/>
</svg>
