<?xml version="1.0" encoding="utf-8"?>
<!-- Generator: Adobe Illustrator 25.4.1, SVG Export Plug-In . SVG Version: 6.00 Build 0)  -->
<svg version="1.1" id="Layer_1" xmlns="http://www.w3.org/2000/svg" xmlns:xlink="http://www.w3.org/1999/xlink" x="0px" y="0px"
	 viewBox="0 0 18 18" style="enable-background:new 0 0 18 18;" xml:space="preserve">
<style type="text/css">
	.st0{fill:#1B1D21;}
</style>
<path class="st0" d="M18,18h-4v-6.8c0-1.1-1.2-1.9-2.2-1.9S10,10.2,10,11.2V18H6V6h4v2c0.7-1.1,2.4-1.8,3.5-1.8c2.5,0,4.5,2,4.5,4.5
	V18 M4,18H0V6h4V18 M2,0c1.1,0,2,0.9,2,2S3.1,4,2,4S0,3.1,0,2S0.9,0,2,0z"/>
</svg>
